<?xml version="1.0" encoding="utf-8"?>
<!-- Generator: Adobe Illustrator 23.0.3, SVG Export Plug-In . SVG Version: 6.00 Build 0)  -->
<svg version="1.1" id="Layer_1" xmlns="http://www.w3.org/2000/svg" xmlns:xlink="http://www.w3.org/1999/xlink" x="0px" y="0px"
	 viewBox="0 0 375.6 49.8" style="enable-background:new 0 0 375.6 49.8;" xml:space="preserve">
<style type="text/css">
	.st0{fill:#D7A05A;}
	.st1{clip-path:url(#SVGID_2_);}
	.st2{fill:#FFFFFF;}
</style>
<title>Logo_HBD_colors</title>
<polygon class="st0" points="0,0.3 0,46.6 15.7,36.5 31.4,46.6 31.4,0.3 "/>
<g>
	<g>
		<defs>
			<rect id="SVGID_1_" x="-324.2" y="-359.1" width="1024" height="768"/>
		</defs>
		<clipPath id="SVGID_2_">
			<use xlink:href="#SVGID_1_"  style="overflow:visible;"/>
		</clipPath>
		<g class="st1">
			<path class="st2" d="M370.6,12.6l-7.9,20.8h-0.1l-7.9-20.8h-5.2l10.7,26.5l-1.3,3.4c-1.1,2.7-2.3,3.5-3.9,3.5
				c-0.9,0-1.8-0.1-2.6-0.4v3.5c1.2,0.4,2.5,0.6,3.8,0.6c2.9,0,5.4-2,7.3-6.8l12.2-30.4L370.6,12.6z M333.6,35.1
				c-2.8,0-4.7-1.5-4.7-3.7c0-4.2,5.2-4.8,13-6.4v3.2C342,31.8,338.8,35.1,333.6,35.1 M348.3,34.7c-0.9,0-1.6-0.7-1.6-1.6
				c0-0.1,0-0.1,0-0.2V20.2c0-4.9-4.2-8.1-10.5-8.1s-10.6,3.3-10.8,8.3l4.6,0.3c0.1-3.2,2.5-5.3,6.1-5.3s5.9,1.8,5.9,4.6v2
				c-12.2,2.4-17.7,3.5-17.7,9.7c0,4.1,3.2,6.8,8,6.8c4.2,0,7.9-1.8,9.8-4.8l0.1,0.8c0,2.2,1.8,4,4,4h0.1c1.2,0,2.3-0.2,3.4-0.7
				v-3.4C349.2,34.6,348.8,34.7,348.3,34.7 M307.7,34.5c-4.7,0-7.8-3.7-7.8-9.2s3.1-9.2,7.8-9.2s7.7,3.7,7.7,9.2
				S312.3,34.5,307.7,34.5 M315.4,0.3v17.2h-0.1c-1.5-3.3-5.2-5.3-9.3-5.3c-6.6,0-11,5.2-11,13.2s4.4,13.2,11,13.2
				c4.2,0,7.9-2,9.4-5.3h0.1V38h4.9V0.3H315.4z M281,12.6l-7.9,20.8H273l-7.9-20.8h-5.2l10.7,26.5l-1.3,3.4
				c-1.1,2.7-2.3,3.5-3.9,3.5c-0.9,0-1.8-0.1-2.7-0.4v3.5c1.2,0.4,2.5,0.6,3.8,0.6c2.9,0,5.4-2,7.3-6.8L286,12.6H281z M246.9,34.5
				c-4.6,0-7.7-3.7-7.7-9.2s3.1-9.2,7.7-9.2s7.7,3.7,7.7,9.2S251.5,34.5,246.9,34.5 M248.6,12.2c-4.1,0-7.8,2-9.3,5.3h-0.1V0.3h-4.9
				V38h4.9v-4.8h0.1c1.4,3.3,5.2,5.3,9.3,5.3c6.6,0,11-5.2,11-13.2S255.2,12.2,248.6,12.2 M212.7,12.2l-5.9,18.4h-0.1l-6-18.4h-8.4
				l10.4,28l-0.3,0.9c-0.8,2.3-2.1,2.9-3.5,2.9c-1,0-2-0.1-2.9-0.4v5.5c1.6,0.4,3.2,0.6,4.8,0.6c3.8,0,7.2-2.5,9.4-8.6l10.7-29
				L212.7,12.2z M184.9,11.7c-3.6,0.1-6.7,2.4-7.7,5.8h-0.1v-5.3H169V38h8.1V26.5c0-4.6,2.5-7.7,6.4-7.7c1.3,0,2.6,0.4,3.8,1.1
				l1.8-7.3C187.8,12,186.4,11.7,184.9,11.7 M152,32.1c-3.4,0-5.6-2.8-5.6-7s2.3-7,5.6-7s5.6,2.8,5.6,7S155.4,32.1,152,32.1
				 M152,38.5c8.3,0,13.9-5.3,13.9-13.4s-5.6-13.4-13.9-13.4s-14,5.3-14,13.4S143.6,38.5,152,38.5 M136.4,17.9v-5.7h-7.5V4.8h-5.4
				c-0.8,5.6-2.4,7.9-6,7.9H117v5.2h3.9v12.3c0,5,3.8,8.4,9.5,8.4c2.1,0,4.1-0.4,6.1-1.2v-5.6c-1.1,0.5-2.3,0.8-3.5,0.8
				c-2.4,0-3.9-1.3-3.9-3.1V17.9H136.4z M102.8,38.5c7.4,0,12.3-3.5,12.3-8.7c0-5.8-5.8-7.1-10.4-7.8c-3.1-0.5-5.7-1-5.7-2.9
				c0-1.5,1.5-2.5,3.8-2.5c2.1-0.1,4,1.5,4.1,3.6c0,0,0,0,0,0.1l7.5-0.5c-0.3-4.8-5-8-11.6-8c-7,0-11.6,3.2-11.6,8.1
				c0,5.8,5.6,7,10.1,7.7c3.2,0.5,6,1,6,3.2c0,1.7-1.8,2.9-4.5,2.9s-4.6-1.6-4.8-3.9l-7.5,0.6C90.9,35.3,95.8,38.5,102.8,38.5
				 M79.1,38h8.1V12.2h-8.1V38z M83.1,8.6c2.3,0.2,4.4-1.5,4.6-3.9c0-0.2,0-0.3,0-0.5c0-2.5-1.9-4.2-4.6-4.2s-4.6,1.7-4.6,4.2
				c-0.1,2.3,1.7,4.3,4.1,4.4C82.7,8.6,82.9,8.6,83.1,8.6 M66.4,0.3v15.3H51.8V0.3h-8.5V38h8.5V22.2h14.6V38h8.5V0.3H66.4z"/>
		</g>
	</g>
</g>
</svg>
