<svg id="Layer_1" data-name="Layer 1" xmlns="http://www.w3.org/2000/svg" xmlns:xlink="http://www.w3.org/1999/xlink" viewBox="0 0 375.62 49.78"><defs><style>.cls-1{fill:none;}.cls-2{fill:#d7a05a;}.cls-3{clip-path:url(#clip-path);}</style><clipPath id="clip-path" transform="translate(-324.19 -359.11)"><rect class="cls-1" width="1024" height="768"/></clipPath></defs><title>Logo_HBD_colors</title><polygon class="cls-2" points="0 0.29 0 46.59 15.68 36.48 31.36 46.59 31.36 0.29 0 0.29"/><g class="cls-3"><path d="M694.81,371.75l-7.94,20.83h-.09l-7.89-20.83h-5.2l10.69,26.51-1.33,3.38c-1.08,2.7-2.35,3.53-3.87,3.53a7.38,7.38,0,0,1-2.64-.39v3.52a10.51,10.51,0,0,0,3.77.59c2.89,0,5.44-2,7.3-6.76l12.2-30.38Zm-37,22.44c-2.8,0-4.66-1.52-4.66-3.72,0-4.17,5.2-4.8,13-6.42v3.23c0,3.58-3.14,6.91-8.33,6.91m14.7-.39a1.63,1.63,0,0,1-1.62-1.81V379.35c0-4.86-4.21-8.09-10.54-8.09s-10.63,3.33-10.78,8.33l4.61.29c.1-3.18,2.5-5.29,6.08-5.29s5.88,1.77,5.88,4.56v2c-12.2,2.4-17.69,3.48-17.69,9.7,0,4.07,3.18,6.76,8,6.76,4.17,0,7.89-1.81,9.8-4.8l.1.83a4,4,0,0,0,4.12,4,8.15,8.15,0,0,0,3.38-.68V393.6a4,4,0,0,1-1.32.2m-40.63-.15c-4.66,0-7.75-3.67-7.75-9.21s3.09-9.21,7.75-9.21,7.69,3.67,7.69,9.21-3.09,9.21-7.69,9.21m7.69-34.25v17.2h-.1c-1.47-3.33-5.19-5.34-9.31-5.34-6.61,0-11,5.24-11,13.18s4.41,13.18,11,13.18c4.17,0,7.94-2,9.36-5.29h.1v4.8h4.9V359.4Zm-34.4,12.35-7.94,20.83h-.09l-7.89-20.83h-5.2l10.68,26.51-1.32,3.38c-1.08,2.7-2.35,3.53-3.87,3.53a7.47,7.47,0,0,1-2.65-.39v3.52a10.57,10.57,0,0,0,3.78.59c2.89,0,5.44-2,7.3-6.76l12.2-30.38Zm-34.07,21.9c-4.6,0-7.69-3.67-7.69-9.21s3.09-9.21,7.69-9.21,7.69,3.67,7.69,9.21-3.08,9.21-7.69,9.21m1.67-22.39c-4.07,0-7.79,2-9.26,5.34h-.1V359.4h-4.9v37.73h4.9v-4.8h.1c1.42,3.28,5.19,5.29,9.31,5.29,6.61,0,11-5.24,11-13.18s-4.46-13.18-11.07-13.18m-35.92.05L531,389.73h-.1l-6-18.42h-8.42l10.43,28-.34.88c-.83,2.25-2.06,2.94-3.48,2.94a9.51,9.51,0,0,1-2.89-.39v5.54a17.89,17.89,0,0,0,4.8.63c3.82,0,7.16-2.5,9.41-8.62l10.68-29Zm-27.72-.49a8.25,8.25,0,0,0-7.74,5.78h-.1v-5.29H493.2v25.82h8.13V385.62c0-4.61,2.55-7.7,6.37-7.7a7.6,7.6,0,0,1,3.78,1.13l1.81-7.3a10.06,10.06,0,0,0-4.12-.93m-33,20.38c-3.38,0-5.63-2.84-5.63-7s2.25-7,5.63-7,5.64,2.84,5.64,7-2.26,7-5.64,7m0,6.42c8.33,0,13.92-5.34,13.92-13.42s-5.59-13.38-13.92-13.38-14,5.34-14,13.38,5.58,13.42,14,13.42M460.54,377v-5.68h-7.45v-7.4h-5.44c-.83,5.59-2.35,7.89-6,7.89h-.54V377H445v12.25c0,5,3.82,8.38,9.5,8.38a16.52,16.52,0,0,0,6.08-1.22v-5.59a8.28,8.28,0,0,1-3.53.79c-2.35,0-3.92-1.28-3.92-3.14V377ZM427,397.62c7.39,0,12.29-3.48,12.29-8.72,0-5.83-5.78-7.1-10.38-7.84-3.09-.49-5.74-1-5.74-2.89,0-1.47,1.52-2.45,3.83-2.45a3.85,3.85,0,0,1,4.11,3.63l7.5-.54c-.3-4.81-4.95-8-11.61-8-7,0-11.62,3.23-11.62,8.08,0,5.79,5.59,7,10.15,7.7,3.18.49,6,1,6,3.18,0,1.72-1.76,2.89-4.5,2.89s-4.61-1.56-4.76-3.87l-7.54.64c.34,4.95,5.29,8.18,12.3,8.18m-23.77-.49h8.13V371.31h-8.13Zm4-29.45a4.26,4.26,0,0,0,4.61-4.36c0-2.55-1.87-4.21-4.61-4.21s-4.56,1.66-4.56,4.21a4.22,4.22,0,0,0,4.56,4.36M390.6,359.4v15.34H376V359.4h-8.48v37.73H376V381.31h14.6v15.82h8.52V359.4Z" transform="translate(-324.19 -359.11)"/></g></svg>